<svg xmlns="http://www.w3.org/2000/svg" width="68" height="68" viewBox="0 0 68 68" fill="none">
  <path d="M53.8333 51.0001H25.5C23.9971 51.0001 22.5558 50.4031 21.4931 49.3404C20.4304 48.2776 19.8333 46.8363 19.8333 45.3334V11.3334C19.8333 9.83052 20.4304 8.38918 21.4931 7.32648C22.5558 6.26377 23.9971 5.66675 25.5 5.66675H28.3333V19.8334L34 15.5834L39.6667 19.8334V5.66675H53.8333C55.3362 5.66675 56.7776 6.26377 57.8403 7.32648C58.903 8.38918 59.5 9.83052 59.5 11.3334V45.3334C59.5 46.8363 58.903 48.2776 57.8403 49.3404C56.7776 50.4031 55.3362 51.0001 53.8333 51.0001ZM48.1667 56.6668V62.3334H14.1667C12.6638 62.3334 11.2224 61.7364 10.1597 60.6737C9.09702 59.611 8.5 58.1696 8.5 56.6668V17.0001H14.1667V56.6668H48.1667Z" fill="#005F95"/>
</svg>