<svg xmlns="http://www.w3.org/2000/svg"  viewBox="0 0 64 64" width="64px" height="64px" baseProfile="basic"><ellipse cx="32" cy="61" opacity=".3" rx="19" ry="3"/><path fill="#37d0ee" d="M38.071,4c-6.706,0-12.073,5.436-12.073,12.143v5.865l-4.996-0.005c-1.105-0.001-2.002,0.895-2.002,2	V30c0,1.105,0.895,2,2,2h5v21c0,1.105,0.895,2,2,2h6c1.105,0,2-0.895,2-2V32h6.355c0.956,0,1.778-0.676,1.962-1.614l1.18-6	C45.74,23.15,44.794,22,43.535,22h-7.529v-4.134c0-2.683,2.174-4.86,4.857-4.862l3.14-0.003c1.104-0.001,1.998-0.896,1.998-2	l0-4.774c0-1.051-0.811-1.92-1.859-1.996C42.125,4.085,39.83,3.996,38.071,4L38.071,4z"/><path fill="none" stroke="#fff" stroke-linecap="round" stroke-linejoin="round" stroke-miterlimit="10" stroke-width="3" d="M30.074,13.028c0.732-1.905,2.116-3.485,3.874-4.461"/><path fill="#fff" d="M38.071,9c2.706,0,4.896-2.154,4.984-4.838C41.331,4.059,39.522,3.997,38.071,4 c-6.706,0-12.073,5.436-12.073,12.143v5.865l-4.996-0.005c-1.105-0.001-2.002,0.895-2.002,2V27c1,0,6.993,0.007,6.993,0.007 c0.002,0,0.003,0,0.005,0c1.325,0,2.596-0.526,3.534-1.462c0.939-0.938,1.466-2.21,1.466-3.538v-5.864 C30.999,12.205,34.171,9,38.071,9z" opacity=".3"/><path d="M42.355,32c0.956,0,1.778-0.676,1.962-1.614L44.98,27C44.132,27,36,27,36,27c-2.761,0-5,2.239-5,5 v16c0,2.761,2.239,5,5,5V32H42.355z" opacity=".15"/></svg>